<?xml version="1.0" encoding="iso-8859-1"?>
<!-- Generator: Adobe Illustrator 16.0.0, SVG Export Plug-In . SVG Version: 6.00 Build 0)  -->
<!DOCTYPE svg PUBLIC "-//W3C//DTD SVG 1.1//EN" "http://www.w3.org/Graphics/SVG/1.1/DTD/svg11.dtd">
<svg xmlns="http://www.w3.org/2000/svg" xmlns:xlink="http://www.w3.org/1999/xlink" version="1.1" id="Capa_1" x="0px" y="0px" width="512px" height="512px" viewBox="0 0 32 32" style="enable-background:new 0 0 32 32;" xml:space="preserve">
<g>
	<g>
		<path d="M27.507,21.991h-0.028v-0.673h-0.224v-9.511c0-0.028,0.003-0.056,0.003-0.083c0-2.358-2.277-4.414-5.648-5.496    c-1.72,0-3.695,0-5.608,0s-3.89,0-5.609,0c-3.372,1.082-5.65,3.138-5.65,5.496c0,0.028,0.003,0.055,0.004,0.083v9.511H4.522v0.673    H4.494H4.176v1.851h0.848v-0.925h1.537v0.925H7.41v-1.851H7.003v-0.673H6.779v-5.958c0.904,0.727,2.072,1.339,3.424,1.793    c-0.19,0.283-0.295,0.584-0.295,0.896c0,1.227,1.581,2.278,3.823,2.715c-1.026,0.305-1.694,0.801-1.694,1.361    c0,0.671,0.956,1.248,2.335,1.518H9.73c-0.237,0-0.455,0.076-0.634,0.203c-0.33,0.219-0.548,0.594-0.548,1.02v4.746    C7.605,30.062,6.96,30.961,6.96,32c2.998,0,1.49,0,5.896,0c0-1.136-0.771-2.105-1.861-2.501v-3.662h5.006h5.005v3.662    c-1.088,0.396-1.859,1.365-1.859,2.501c4.405,0,2.898,0,5.896,0c0-1.039-0.646-1.938-1.589-2.387v-4.746    c0-0.426-0.217-0.799-0.547-1.02c-0.18-0.127-0.397-0.203-0.635-0.203h-4.643c1.38-0.27,2.335-0.847,2.335-1.518    c0-0.561-0.668-1.057-1.694-1.361c2.243-0.437,3.824-1.488,3.824-2.715c0-0.312-0.105-0.613-0.295-0.896    c1.352-0.454,2.52-1.067,3.424-1.793v5.958h-0.224v0.673h-0.407v1.851h0.848v-0.925h1.537v0.925h0.848v-1.851H27.507z" fill="#008290"/>
		<path d="M21.578,5.514C21.578,2.469,19.109,0,16.064,0c-0.021,0-0.042,0.003-0.063,0.003C15.979,0.003,15.959,0,15.938,0    c-3.046,0-5.515,2.469-5.515,5.514c3.626,0,3.729,0,5.578,0C17.85,5.514,17.951,5.514,21.578,5.514z M14.077,2.926    c0-1.142,0.926-2.068,2.068-2.068s2.067,0.926,2.067,2.068c0,1.143-0.927,2.068-2.067,2.068    C15.004,4.994,14.077,4.068,14.077,2.926z" fill="#008290"/>
		<path d="M17.227,2.926c0-0.597-0.484-1.081-1.082-1.081c-0.043,0-0.084,0.003-0.125,0.007c0.078,0.108,0.126,0.238,0.126,0.381    c0,0.359-0.291,0.65-0.65,0.65c-0.157,0-0.301-0.059-0.413-0.152c-0.012,0.063-0.019,0.129-0.019,0.195    c0,0.598,0.484,1.082,1.082,1.082C16.742,4.007,17.227,3.524,17.227,2.926z" fill="#008290"/>
	</g>
</svg>
