<?xml version="1.0" ?><!DOCTYPE svg  PUBLIC '-//W3C//DTD SVG 1.1//EN'  'http://www.w3.org/Graphics/SVG/1.1/DTD/svg11.dtd'><svg enable-background="new 0 0 128 128" id="Слой_1" version="1.1" viewBox="0 0 128 128" xml:space="preserve" xmlns="http://www.w3.org/2000/svg" xmlns:xlink="http://www.w3.org/1999/xlink"><path d="M107.724,107.958c10.955-10.894,17.878-25.872,18.26-42.537c0.785-34.233-26.33-62.62-60.562-63.405  C32.615,1.264,5.195,26.14,2.274,58.343c-0.127,1.401-0.225,2.81-0.258,4.237C1.698,76.479,5.979,89.414,13.468,99.93  c2.051,2.879,4.342,5.577,6.846,8.064c-0.004-0.005-0.008-0.01-0.012-0.016c-0.003-0.004-0.006-0.007-0.008-0.011l0,0  c-0.027-0.04-0.055-0.079-0.082-0.111c-0.005-0.006-0.01-0.016-0.016-0.021c0,0,34.038,15.416,43.804,15.416  c9.692,0,43.616-15.572,43.785-15.378c0.005,0.006-0.005-0.006,0,0" fill="#C65C44"/><g><path d="M62.579,124.984c17.556,0.403,14.653-31.027,14.653-31.027c-0.773-0.324-1.263-1.096-1.225-1.933   l0.432-9.769l-0.178-2.401h-24.54l-0.178,2.401l0.432,9.769c0.037,0.838-0.452,1.609-1.225,1.933   C50.749,93.957,46.052,124.606,62.579,124.984z" fill="#EAB78C"/><path d="M67.047,125.908c0.707-0.034,1.415-0.063,2.115-0.121c0.477-0.039,0.947-0.102,1.421-0.153   c0.601-0.064,1.204-0.118,1.799-0.199c0.52-0.07,1.033-0.164,1.55-0.248c0.54-0.087,1.082-0.165,1.617-0.266   c0.547-0.103,1.085-0.229,1.627-0.347c0.495-0.107,0.992-0.206,1.483-0.325c0.566-0.138,1.124-0.297,1.684-0.45   c0.455-0.124,0.913-0.24,1.363-0.375c0.581-0.173,1.153-0.367,1.727-0.557c0.419-0.138,0.84-0.269,1.255-0.416   c0.59-0.209,1.171-0.438,1.753-0.665c0.387-0.151,0.777-0.294,1.16-0.452c0.595-0.245,1.179-0.509,1.764-0.773   c0.359-0.161,0.72-0.317,1.076-0.485c0.595-0.282,1.181-0.581,1.765-0.881c0.332-0.17,0.668-0.336,0.997-0.512   c0.593-0.318,1.176-0.652,1.757-0.988c0.308-0.178,0.619-0.352,0.924-0.536c0.586-0.352,1.161-0.72,1.734-1.091   c0.288-0.187,0.579-0.37,0.864-0.561c0.575-0.386,1.138-0.786,1.699-1.19c0.27-0.195,0.543-0.387,0.81-0.586   c0.56-0.417,1.109-0.848,1.654-1.284c0.255-0.204,0.512-0.406,0.764-0.613c0.54-0.446,1.07-0.904,1.595-1.367   c0.244-0.215,0.489-0.43,0.729-0.649c0.516-0.47,1.02-0.951,1.52-1.438c0.176-0.171,0.351-0.343,0.525-0.516   c-0.003-0.003-0.006-0.006-0.009-0.009c0.005-0.006,0.01-0.016,0.016-0.021c-2.7-3.071-6.339-3.938-7.101-4.091   c-0.074-0.011-0.134-0.02-0.164-0.025c-0.006-0.001-0.02-0.003-0.02-0.003l-0.001,0c-0.02-0.003-0.038-0.007-0.038-0.007   l-0.138-0.065l-15.264-6.408l-7.296-3.055c-3.918,4.039-15.715,9.604-27.532-0.005l-22.783,9.54c0,0-0.047,0.008-0.114,0.021   c-0.07,0.014-0.163,0.032-0.296,0.064c-0.028,0.007-0.065,0.016-0.096,0.024c-0.065,0.016-0.128,0.031-0.203,0.051   c-0.034,0.009-0.076,0.022-0.113,0.032c-0.081,0.022-0.161,0.044-0.251,0.071c-0.056,0.017-0.122,0.038-0.182,0.057   c-0.081,0.025-0.158,0.048-0.244,0.077c-0.061,0.02-0.129,0.046-0.193,0.068c-0.093,0.033-0.184,0.063-0.283,0.1   c-0.083,0.031-0.173,0.068-0.26,0.103c-0.087,0.034-0.17,0.065-0.26,0.103c-0.093,0.039-0.191,0.084-0.287,0.127   c-0.089,0.04-0.176,0.076-0.268,0.119c-0.094,0.044-0.192,0.095-0.288,0.143c-0.098,0.049-0.195,0.094-0.295,0.147   c-0.09,0.047-0.183,0.102-0.275,0.153c-0.109,0.061-0.217,0.118-0.328,0.183c-0.092,0.054-0.185,0.116-0.277,0.174   c-0.112,0.07-0.224,0.137-0.336,0.212c-0.093,0.062-0.187,0.133-0.28,0.199c-0.112,0.079-0.225,0.155-0.337,0.24   c-0.094,0.071-0.187,0.151-0.281,0.226c-0.111,0.089-0.222,0.174-0.332,0.269c-0.093,0.08-0.183,0.169-0.275,0.253   c-0.109,0.1-0.219,0.196-0.327,0.302c-0.089,0.088-0.175,0.186-0.263,0.278c-0.103,0.109-0.208,0.213-0.308,0.328   c0.005,0.005,0.01,0.015,0.015,0.021c-0.005,0.006-0.011,0.011-0.016,0.017c0.007,0.007,0.015,0.014,0.022,0.021   c0.545,0.544,1.106,1.071,1.671,1.595c0.136,0.126,0.266,0.258,0.403,0.382c0.58,0.528,1.176,1.038,1.776,1.544   c0.135,0.114,0.265,0.234,0.401,0.347c0.603,0.5,1.221,0.981,1.842,1.458c0.143,0.109,0.28,0.225,0.424,0.333   c0.633,0.477,1.281,0.935,1.933,1.389c0.14,0.097,0.274,0.2,0.414,0.296c0.652,0.445,1.318,0.871,1.988,1.292   c0.149,0.094,0.294,0.194,0.444,0.287c0.664,0.409,1.342,0.799,2.023,1.184c0.163,0.092,0.322,0.192,0.486,0.283   c0.673,0.372,1.359,0.724,2.047,1.072c0.18,0.091,0.355,0.19,0.536,0.279c0.673,0.332,1.359,0.643,2.046,0.951   c0.204,0.091,0.402,0.192,0.607,0.281c0.671,0.292,1.354,0.562,2.037,0.831c0.229,0.09,0.453,0.19,0.683,0.277   c0.666,0.253,1.343,0.483,2.02,0.713c0.255,0.087,0.506,0.185,0.763,0.268c0.666,0.217,1.342,0.41,2.018,0.605   c0.276,0.08,0.547,0.17,0.824,0.246c0.661,0.181,1.331,0.337,2.001,0.496c0.3,0.071,0.596,0.155,0.898,0.222   c0.648,0.144,1.306,0.263,1.962,0.386c0.331,0.062,0.657,0.137,0.989,0.194c0.66,0.113,1.329,0.2,1.996,0.293   c0.335,0.046,0.665,0.105,1.002,0.146c0.728,0.088,1.464,0.15,2.2,0.213c0.282,0.024,0.561,0.061,0.844,0.081   c1.022,0.074,2.051,0.123,3.086,0.147c1.111,0.025,2.216,0.02,3.314-0.012C66.281,125.96,66.662,125.927,67.047,125.908z" fill="#F8F7F7"/><path d="M67.083,106.337l1.78-8.061c-1.545,0.148-3.103-0.893-4.676-0.887c-0.062,0-0.125,0.01-0.187,0.013   c-0.062-0.003-0.125-0.013-0.187-0.013c-1.573-0.006-3.131,1.035-4.676,0.887l1.78,8.061l0,0l-2.865,19.373   c1.494,0.143,3.003,0.239,4.527,0.274c2.491,0.057,4.946-0.051,7.367-0.281L67.083,106.337z" fill="#EBBD4B"/><path d="M64.187,97.389c-0.062,0-0.125,0.01-0.187,0.013c-0.062-0.003-0.125-0.013-0.187-0.013   c-1.573-0.006-3.131,1.035-4.676,0.887l1.78,8.061c0,0,0.943-0.859,3.083-0.962c2.14,0.103,3.083,0.963,3.083,0.963l1.78-8.061   C67.318,98.424,65.76,97.384,64.187,97.389z" fill="#010202" opacity="0.1"/><path d="M51.816,88.438L51.816,88.438c-0.347,0-0.44,0.279-0.504,0.516l-1.081,5.221   c1.842,5.624,7.845,12.297,9.355,13.916c0.156,0.167,0.436,0.098,0.507-0.119c2.336-7.173,2.287-9.721,3.907-10.582   C64,97.389,51.938,91.407,51.816,88.438z" fill="#010202" opacity="0.07"/><path d="M51.816,88.438L51.816,88.438c-0.347,0-0.44,0.279-0.504,0.516l-1.081,5.221   c2.811,6.158,7.83,11.029,9.179,12.271c0.16,0.147,0.421,0.069,0.489-0.137c2.356-7.137,2.479-8.056,4.101-8.919   C64,97.389,51.938,91.407,51.816,88.438z" fill="#EDEDED"/><path d="M76.165,88.438L76.165,88.438c0.347,0,0.44,0.279,0.504,0.516l1.081,5.221   c-1.841,5.623-7.829,12.295-9.336,13.916c-0.156,0.168-0.436,0.099-0.507-0.119c-2.336-7.172-2.306-9.72-3.926-10.581   C63.981,97.389,76.044,91.407,76.165,88.438z" fill="#010202" opacity="0.07"/><path d="M76.165,88.438L76.165,88.438c0.347,0,0.44,0.279,0.504,0.516l1.081,5.221   c-2.811,6.158-7.83,11.029-9.179,12.271c-0.16,0.147-0.421,0.069-0.489-0.137c-2.356-7.137-2.479-8.056-4.101-8.919   C63.981,97.389,76.044,91.407,76.165,88.438z" fill="#EDEDED"/><path d="M43.052,66.666c0.01-0.003,0.019-0.009,0.028-0.012l0.003,0.012l1.709,6.884   c0.777,3.129,2.284,6.038,4.392,8.477c8.82,10.203,10.707,11.28,13.462,11.392L64,93.417l1.352,0.001   c2.755-0.112,4.643-1.189,13.462-11.392c2.108-2.439,3.615-5.348,4.392-8.477l1.709-6.884l0.003-0.012   c0.01,0.003,0.019,0.009,0.028,0.012c2.651,0.815,5.919-1.799,7.368-6.512c1.449-4.713,0.53-9.741-2.121-10.555   c-0.2-0.061-0.405-0.093-0.612-0.11l0.269-2.57c0-24.78-21.324-26.626-22.353-26.626h-2.022H64h-1.476h-2.022   c-1.029,0-22.353,1.846-22.353,26.626l0.269,2.57c-0.207,0.017-0.412,0.049-0.612,0.11c-2.651,0.815-3.57,5.842-2.121,10.555   C37.134,64.867,40.401,67.48,43.052,66.666z" fill="#EAB78C"/><path d="M70.997,16.409c-5.327-1.922-11.156-2.461-16.602-0.905C28.16,23,38.456,49.38,38.456,49.38l0.274,0.012   l2.079,8.791h1.873c-0.618-5.949-0.901-13.754-0.901-13.754l4.255-5.507c9.021-11.024,36.624,4.892,40.197,0.955l-0.751,18.307   h1.906l1.957-8.7l0.238,0.004c1.492-13.446,1.974-14.654,0.222-19.423C87.305,23.265,77.313,18.688,70.997,16.409z" fill="#403B35"/><path d="M46.036,38.922L41.82,44.38l4.216-4.458c8.454-10.332,33.218,2.106,39.239,0.475   C79.237,41.905,54.485,28.596,46.036,38.922z" fill="#020304" opacity="0.2"/><path d="M54.395,15.504C28.16,23,38.456,49.38,38.456,49.38l0.274,0.012l2.079,8.791l0.682,0.001   c-0.031-0.301-1.542-8.761-1.542-8.761S30.16,23,56.395,15.504c1.844-0.527,3.733-0.795,5.63-0.87   C59.458,14.538,56.886,14.793,54.395,15.504z" fill="#FDFDFD" opacity="0.1"/><path d="M70.997,16.409c-3.508-1.266-7.222-1.872-10.912-1.734c3.025,0.109,6.038,0.697,8.912,1.734   c6.317,2.279,16.309,6.856,18.808,13.656c1.753,4.769,0.759,5.183,0.107,19.508l-0.523,8.612l1.957-8.7l0.238,0.004   c1.533-13.076,1.974-14.654,0.222-19.423C87.305,23.265,77.313,18.688,70.997,16.409z" fill="#020304" opacity="0.2"/><path d="M49.084,76.666l-0.003-0.012c-0.01,0.003-0.019,0.009-0.028,0.012c-1.117,0.343-2.341,0.072-3.495-0.702   c0.849,2.209,2.074,4.264,3.628,6.062c0.615,0.712,1.189,1.369,1.74,1.995c-0.043-0.157-0.093-0.313-0.132-0.471L49.084,76.666z" fill="#EAB78C"/><path d="M77.766,94.181c0.001-0.002,0.002-0.004,0.003-0.006l-1.081-5.221   c-0.063-0.236-0.156-0.516-0.504-0.516h0c-0.002,0.053-0.016,0.108-0.026,0.163l0.165-3.732c-6.709,7.549-8.499,8.449-10.971,8.55   L64,93.417l-1.352,0.001c-2.474-0.101-4.27-1.009-10.991-8.573l0.067,1.517c0.838,2.057,2.001,3.975,3.461,5.664   c8.82,10.203,10.707,11.28,13.462,11.392L70,103.417l1.352,0.001c2.372-0.096,4.113-0.924,10.178-7.661L77.766,94.181z" fill="#010202" opacity="0.1"/><path d="M62,103" fill="#CE4A46"/></g></svg>